<svg id="logo" xmlns="http://www.w3.org/2000/svg" width="223" height="191" viewBox="0 0 223 191">
  <path id="Icon_awesome-code" data-name="Icon awesome-code" d="M38.087,68.946l-8.33-2.386a1.617,1.617,0,0,1-1.12-2.008L47.278,1.17A1.644,1.644,0,0,1,49.312.065l8.33,2.386a1.617,1.617,0,0,1,1.12,2.008L40.122,67.841A1.64,1.64,0,0,1,38.087,68.946ZM22.52,53.822l5.94-6.255a1.6,1.6,0,0,0-.109-2.318L15.979,34.505,28.351,23.762a1.592,1.592,0,0,0,.109-2.318l-5.94-6.255a1.655,1.655,0,0,0-2.321-.067L.521,33.319a1.593,1.593,0,0,0,0,2.359L20.2,53.889a1.643,1.643,0,0,0,2.321-.067ZM67.2,53.9,86.879,35.692a1.593,1.593,0,0,0,0-2.359L67.2,15.108a1.669,1.669,0,0,0-2.321.067l-5.94,6.255a1.6,1.6,0,0,0,.109,2.318L71.421,34.505,59.049,45.249a1.592,1.592,0,0,0-.109,2.319l5.94,6.255A1.656,1.656,0,0,0,67.2,53.9Z" transform="translate(67.8 91.497)" fill="#fff"/>
  <g id="Rectangle_47" data-name="Rectangle 47" fill="none" stroke="#fff" stroke-width="14">
    <rect width="223" height="191" rx="36" stroke="none"/>
    <rect x="7" y="7" width="209" height="177" rx="29" fill="none"/>
  </g>
  <line id="Line_5" data-name="Line 5" x2="206.5" transform="translate(4.75 63.46)" fill="none" stroke="#fff" stroke-width="14"/>
  <circle id="Ellipse_1" data-name="Ellipse 1" cx="7" cy="7" r="7" transform="translate(26 31)" fill="#fff"/>
  <text id="Polcsi" transform="translate(118 42)" fill="#fff" font-size="15" font-family="GoodTimes, Good Times"><tspan x="0" y="0">Polcsi</tspan></text>
  <circle id="Ellipse_6" data-name="Ellipse 6" cx="7" cy="7" r="7" transform="translate(45 31)" fill="#fff"/>
  <circle id="Ellipse_7" data-name="Ellipse 7" cx="7" cy="7" r="7" transform="translate(64 31)" fill="#fff"/>
</svg>
